<svg xmlns="http://www.w3.org/2000/svg" width="60" height="60" viewBox="0 0 60 60"><g><g><path fill="#1d1e1c" d="M55.005 37.89v5.615a28.198 28.198 0 0 0 2.296-5.614zM6.571 46.07a28.652 28.652 0 0 0 4.479 5.093V31.837H1.642c.098 1.529.318 3.024.65 4.478h4.28zm-1.576-8.18H2.699a28.254 28.254 0 0 0 2.296 5.615zm3.679-26.65h42.653a28.666 28.666 0 0 0-5.391-4.764H14.065a28.667 28.667 0 0 0-5.391 4.764zM30 1.576c-4.81 0-9.342 1.206-13.318 3.323h26.637A28.248 28.248 0 0 0 30 1.576zm6.842 56.01a28.248 28.248 0 0 0 4.478-1.52v-31.86H57.83a28.123 28.123 0 0 0-1.446-4.764H36.842zm-6.054.818a28.494 28.494 0 0 0 4.478-.477v-40.06h20.432a28.457 28.457 0 0 0-3.076-5.051H30.788zm-6.054-40.538v40.061a28.49 28.49 0 0 0 4.478.477V12.816H7.378a28.45 28.45 0 0 0-3.075 5.05zm-6.054 6.34V55.84h-.5a28.188 28.188 0 0 0 4.979 1.746V19.443H3.617a28.132 28.132 0 0 0-1.445 4.763zM1.583 30.26h11.043v22.213a28.534 28.534 0 0 0 4.478 2.845V25.783H1.891A28.512 28.512 0 0 0 1.577 30c0 .088.005.174.006.26zm45.791 0h11.044c0-.086.006-.172.006-.26 0-1.433-.108-2.84-.314-4.217H42.896v29.535a28.534 28.534 0 0 0 4.478-2.845zM60 30c0 16.542-13.458 30-30 30S0 46.542 0 30 13.458 0 30 0s30 13.458 30 30z"/></g></g></svg>