<svg xmlns="http://www.w3.org/2000/svg" width="60" height="60" viewBox="0 0 60 60"><g><g><path fill="#59d194" d="M55.005 37.89v5.615a28.198 28.198 0 0 0 2.296-5.614zM6.571 46.07a28.652 28.652 0 0 0 4.479 5.093V31.837H1.642c.098 1.529.318 3.024.65 4.478h4.28zm-1.576-8.18H2.699a28.254 28.254 0 0 0 2.296 5.615zm3.679-26.65h42.652a28.666 28.666 0 0 0-5.39-4.765H14.064a28.667 28.667 0 0 0-5.391 4.764zM30 1.574c-4.81 0-9.343 1.206-13.319 3.324H43.32A28.248 28.248 0 0 0 30 1.575zm6.841 56.011a28.248 28.248 0 0 0 4.479-1.52v-31.86h16.509a28.123 28.123 0 0 0-1.446-4.764H36.84zm-6.053.818a28.494 28.494 0 0 0 4.478-.477V17.866h20.432a28.457 28.457 0 0 0-3.076-5.05H30.788zm-6.054-40.538v40.061a28.49 28.49 0 0 0 4.478.477V12.816H7.378a28.45 28.45 0 0 0-3.076 5.05zm-6.054 6.34V55.84h-.5a28.188 28.188 0 0 0 4.979 1.746V19.442H3.617a28.132 28.132 0 0 0-1.446 4.764zM1.583 30.26h11.043v22.213a28.534 28.534 0 0 0 4.478 2.845V25.783H1.89A28.512 28.512 0 0 0 1.576 30c0 .088.006.174.007.26zm45.79 0h11.044c.001-.086.007-.172.007-.26 0-1.433-.109-2.84-.314-4.217H42.896v29.534a28.534 28.534 0 0 0 4.478-2.844zM60 30c0 16.542-13.458 30-30 30S0 46.542 0 30 13.458 0 30 0s30 13.458 30 30z"/></g></g></svg>